<svg width="150" height="69" viewBox="0 0 150 69" fill="none" xmlns="http://www.w3.org/2000/svg">
<g filter="url(#filter0_d_6_1630)">
<mask id="path-1-outside-1_6_1630" maskUnits="userSpaceOnUse" x="4.3125" y="27.2381" width="142" height="33" fill="black">
<rect fill="white" x="4.3125" y="27.2381" width="142" height="33"/>
<path d="M5.3125 34.2338V28.2381H31.13V34.2338H21.8679V58.7835H14.5895V34.2338H5.3125Z"/>
<path d="M38.0765 59.1713C36.6149 59.1713 35.3173 58.9277 34.1838 58.4405C33.0602 57.9433 32.1703 57.1976 31.514 56.2033C30.8677 55.199 30.5446 53.9412 30.5446 52.4298C30.5446 51.1571 30.7683 50.0832 31.2157 49.2082C31.6632 48.3332 32.2797 47.6223 33.0652 47.0754C33.8507 46.5286 34.7555 46.1159 35.7797 45.8375C36.8038 45.5491 37.8975 45.3553 39.0609 45.2558C40.3635 45.1365 41.4125 45.0122 42.2079 44.883C43.0034 44.7438 43.5801 44.5499 43.938 44.3013C44.3059 44.0428 44.4899 43.6798 44.4899 43.2125V43.1379C44.4899 42.3723 44.2264 41.7807 43.6994 41.3631C43.1724 40.9455 42.4615 40.7366 41.5666 40.7366C40.6021 40.7366 39.8265 40.9455 39.2399 41.3631C38.6532 41.7807 38.2804 42.3574 38.1213 43.0932L31.3947 42.8545C31.5936 41.4625 32.1056 40.2196 32.9309 39.1259C33.7662 38.0222 34.9096 37.1571 36.3613 36.5307C37.823 35.8943 39.5779 35.5761 41.6262 35.5761C43.0879 35.5761 44.4352 35.7501 45.6681 36.0982C46.9011 36.4362 47.975 36.9334 48.8897 37.5896C49.8045 38.2359 50.5105 39.0314 51.0076 39.976C51.5147 40.9206 51.7683 41.9994 51.7683 43.2125V58.7835H44.9075V55.5918H44.7285C44.3208 56.3673 43.7988 57.0236 43.1625 57.5605C42.536 58.0974 41.7953 58.5001 40.9402 58.7686C40.095 59.0371 39.1404 59.1713 38.0765 59.1713ZM40.3287 54.3986C41.1142 54.3986 41.8201 54.2395 42.4466 53.9213C43.0829 53.6031 43.59 53.1656 43.9679 52.6088C44.3457 52.042 44.5346 51.3858 44.5346 50.6401V48.4625C44.3258 48.5719 44.0723 48.6713 43.774 48.7608C43.4856 48.8503 43.1674 48.9348 42.8194 49.0143C42.4714 49.0939 42.1135 49.1635 41.7456 49.2232C41.3777 49.2828 41.0247 49.3375 40.6866 49.3872C40.0005 49.4966 39.4139 49.6656 38.9267 49.8943C38.4494 50.123 38.0815 50.4213 37.823 50.7892C37.5744 51.1472 37.4501 51.5747 37.4501 52.0719C37.4501 52.8276 37.7186 53.4043 38.2555 53.802C38.8024 54.1997 39.4934 54.3986 40.3287 54.3986Z"/>
<path d="M76.2285 42.8695L69.5318 43.0484C69.4622 42.5712 69.2733 42.1486 68.965 41.7807C68.6568 41.4028 68.2541 41.1095 67.7569 40.9007C67.2697 40.682 66.7029 40.5726 66.0566 40.5726C65.2115 40.5726 64.4906 40.7416 63.894 41.0797C63.3073 41.4178 63.019 41.8751 63.0289 42.4518C63.019 42.8993 63.198 43.2871 63.5659 43.6152C63.9437 43.9433 64.6149 44.2068 65.5794 44.4057L69.9941 45.2409C72.2811 45.6784 73.9814 46.4043 75.095 47.4185C76.2186 48.4327 76.7853 49.775 76.7953 51.4455C76.7853 53.0165 76.318 54.3837 75.3933 55.547C74.4785 56.7104 73.2257 57.6152 71.6348 58.2615C70.0439 58.8979 68.2243 59.2161 66.176 59.2161C62.9047 59.2161 60.3244 58.5449 58.4352 57.2026C56.5559 55.8503 55.4821 54.0406 55.2136 51.7736L62.4174 51.5946C62.5765 52.4298 62.9892 53.0662 63.6554 53.5037C64.3216 53.9412 65.1717 54.1599 66.2058 54.1599C67.1404 54.1599 67.9011 53.9859 68.4877 53.6379C69.0744 53.2899 69.3727 52.8276 69.3826 52.2509C69.3727 51.7338 69.144 51.3212 68.6966 51.0129C68.2491 50.6947 67.5481 50.4462 66.5936 50.2672L62.5964 49.5065C60.2995 49.0889 58.5893 48.3183 57.4657 47.1947C56.3422 46.0612 55.7853 44.6195 55.7953 42.8695C55.7853 41.3382 56.193 40.0307 57.0183 38.9469C57.8436 37.8531 59.0169 37.0179 60.5382 36.4412C62.0595 35.8645 63.8542 35.5761 65.9224 35.5761C69.0247 35.5761 71.4707 36.2274 73.2605 37.53C75.0502 38.8226 76.0396 40.6024 76.2285 42.8695Z"/>
<path d="M86.9634 52.7729L86.9933 44.0776H88.0075L94.4506 35.8744H102.713L93.1381 47.6273H91.2141L86.9634 52.7729ZM80.386 58.7835V28.2381H87.6793V58.7835H80.386ZM94.6147 58.7835L88.619 49.2679L93.4215 44.0925L103.042 58.7835H94.6147Z"/>
<path d="M115.089 59.2161C112.693 59.2161 110.624 58.7438 108.884 57.7991C107.154 56.8446 105.822 55.4874 104.887 53.7274C103.963 51.9575 103.5 49.8545 103.5 47.4185C103.5 45.052 103.968 42.9838 104.902 41.2139C105.837 39.4341 107.154 38.052 108.855 37.0676C110.555 36.0733 112.558 35.5761 114.865 35.5761C116.496 35.5761 117.987 35.8297 119.34 36.3368C120.692 36.8439 121.86 37.5946 122.845 38.5889C123.829 39.5832 124.595 40.8112 125.142 42.2729C125.688 43.7246 125.962 45.3901 125.962 47.2693V49.0889H106.051V44.8531H119.176C119.166 44.0776 118.982 43.3865 118.624 42.78C118.266 42.1734 117.774 41.7011 117.147 41.3631C116.531 41.0151 115.82 40.8411 115.014 40.8411C114.199 40.8411 113.468 41.025 112.822 41.3929C112.176 41.7509 111.664 42.243 111.286 42.8695C110.908 43.4859 110.709 44.1869 110.689 44.9724V49.2828C110.689 50.2175 110.873 51.0378 111.241 51.7437C111.609 52.4398 112.131 52.9817 112.807 53.3695C113.483 53.7572 114.289 53.9511 115.223 53.9511C115.869 53.9511 116.456 53.8616 116.983 53.6827C117.51 53.5037 117.963 53.2402 118.34 52.8922C118.718 52.5442 119.002 52.1166 119.191 51.6095L125.887 51.8034C125.609 53.3048 124.997 54.6124 124.053 55.726C123.118 56.8297 121.89 57.6898 120.369 58.3062C118.847 58.9128 117.088 59.2161 115.089 59.2161Z"/>
<path d="M129.687 58.7835V35.8744H136.771V40.0506H137.01C137.428 38.5392 138.109 37.4156 139.053 36.6798C139.998 35.9341 141.097 35.5612 142.349 35.5612C142.687 35.5612 143.036 35.5861 143.393 35.6358C143.751 35.6756 144.085 35.7402 144.393 35.8297V42.1685C144.045 42.0491 143.587 41.9547 143.021 41.8851C142.464 41.8155 141.967 41.7807 141.529 41.7807C140.664 41.7807 139.884 41.9746 139.188 42.3624C138.501 42.7402 137.96 43.2722 137.562 43.9582C137.174 44.6344 136.98 45.4298 136.98 46.3446V58.7835H129.687Z"/>
</mask>
<path d="M5.3125 34.2338V28.2381H31.13V34.2338H21.8679V58.7835H14.5895V34.2338H5.3125Z" fill="white"/>
<path d="M38.0765 59.1713C36.6149 59.1713 35.3173 58.9277 34.1838 58.4405C33.0602 57.9433 32.1703 57.1976 31.514 56.2033C30.8677 55.199 30.5446 53.9412 30.5446 52.4298C30.5446 51.1571 30.7683 50.0832 31.2157 49.2082C31.6632 48.3332 32.2797 47.6223 33.0652 47.0754C33.8507 46.5286 34.7555 46.1159 35.7797 45.8375C36.8038 45.5491 37.8975 45.3553 39.0609 45.2558C40.3635 45.1365 41.4125 45.0122 42.2079 44.883C43.0034 44.7438 43.5801 44.5499 43.938 44.3013C44.3059 44.0428 44.4899 43.6798 44.4899 43.2125V43.1379C44.4899 42.3723 44.2264 41.7807 43.6994 41.3631C43.1724 40.9455 42.4615 40.7366 41.5666 40.7366C40.6021 40.7366 39.8265 40.9455 39.2399 41.3631C38.6532 41.7807 38.2804 42.3574 38.1213 43.0932L31.3947 42.8545C31.5936 41.4625 32.1056 40.2196 32.9309 39.1259C33.7662 38.0222 34.9096 37.1571 36.3613 36.5307C37.823 35.8943 39.5779 35.5761 41.6262 35.5761C43.0879 35.5761 44.4352 35.7501 45.6681 36.0982C46.9011 36.4362 47.975 36.9334 48.8897 37.5896C49.8045 38.2359 50.5105 39.0314 51.0076 39.976C51.5147 40.9206 51.7683 41.9994 51.7683 43.2125V58.7835H44.9075V55.5918H44.7285C44.3208 56.3673 43.7988 57.0236 43.1625 57.5605C42.536 58.0974 41.7953 58.5001 40.9402 58.7686C40.095 59.0371 39.1404 59.1713 38.0765 59.1713ZM40.3287 54.3986C41.1142 54.3986 41.8201 54.2395 42.4466 53.9213C43.0829 53.6031 43.59 53.1656 43.9679 52.6088C44.3457 52.042 44.5346 51.3858 44.5346 50.6401V48.4625C44.3258 48.5719 44.0723 48.6713 43.774 48.7608C43.4856 48.8503 43.1674 48.9348 42.8194 49.0143C42.4714 49.0939 42.1135 49.1635 41.7456 49.2232C41.3777 49.2828 41.0247 49.3375 40.6866 49.3872C40.0005 49.4966 39.4139 49.6656 38.9267 49.8943C38.4494 50.123 38.0815 50.4213 37.823 50.7892C37.5744 51.1472 37.4501 51.5747 37.4501 52.0719C37.4501 52.8276 37.7186 53.4043 38.2555 53.802C38.8024 54.1997 39.4934 54.3986 40.3287 54.3986Z" fill="white"/>
<path d="M76.2285 42.8695L69.5318 43.0484C69.4622 42.5712 69.2733 42.1486 68.965 41.7807C68.6568 41.4028 68.2541 41.1095 67.7569 40.9007C67.2697 40.682 66.7029 40.5726 66.0566 40.5726C65.2115 40.5726 64.4906 40.7416 63.894 41.0797C63.3073 41.4178 63.019 41.8751 63.0289 42.4518C63.019 42.8993 63.198 43.2871 63.5659 43.6152C63.9437 43.9433 64.6149 44.2068 65.5794 44.4057L69.9941 45.2409C72.2811 45.6784 73.9814 46.4043 75.095 47.4185C76.2186 48.4327 76.7853 49.775 76.7953 51.4455C76.7853 53.0165 76.318 54.3837 75.3933 55.547C74.4785 56.7104 73.2257 57.6152 71.6348 58.2615C70.0439 58.8979 68.2243 59.2161 66.176 59.2161C62.9047 59.2161 60.3244 58.5449 58.4352 57.2026C56.5559 55.8503 55.4821 54.0406 55.2136 51.7736L62.4174 51.5946C62.5765 52.4298 62.9892 53.0662 63.6554 53.5037C64.3216 53.9412 65.1717 54.1599 66.2058 54.1599C67.1404 54.1599 67.9011 53.9859 68.4877 53.6379C69.0744 53.2899 69.3727 52.8276 69.3826 52.2509C69.3727 51.7338 69.144 51.3212 68.6966 51.0129C68.2491 50.6947 67.5481 50.4462 66.5936 50.2672L62.5964 49.5065C60.2995 49.0889 58.5893 48.3183 57.4657 47.1947C56.3422 46.0612 55.7853 44.6195 55.7953 42.8695C55.7853 41.3382 56.193 40.0307 57.0183 38.9469C57.8436 37.8531 59.0169 37.0179 60.5382 36.4412C62.0595 35.8645 63.8542 35.5761 65.9224 35.5761C69.0247 35.5761 71.4707 36.2274 73.2605 37.53C75.0502 38.8226 76.0396 40.6024 76.2285 42.8695Z" fill="white"/>
<path d="M86.9634 52.7729L86.9933 44.0776H88.0075L94.4506 35.8744H102.713L93.1381 47.6273H91.2141L86.9634 52.7729ZM80.386 58.7835V28.2381H87.6793V58.7835H80.386ZM94.6147 58.7835L88.619 49.2679L93.4215 44.0925L103.042 58.7835H94.6147Z" fill="white"/>
<path d="M115.089 59.2161C112.693 59.2161 110.624 58.7438 108.884 57.7991C107.154 56.8446 105.822 55.4874 104.887 53.7274C103.963 51.9575 103.5 49.8545 103.5 47.4185C103.5 45.052 103.968 42.9838 104.902 41.2139C105.837 39.4341 107.154 38.052 108.855 37.0676C110.555 36.0733 112.558 35.5761 114.865 35.5761C116.496 35.5761 117.987 35.8297 119.34 36.3368C120.692 36.8439 121.86 37.5946 122.845 38.5889C123.829 39.5832 124.595 40.8112 125.142 42.2729C125.688 43.7246 125.962 45.3901 125.962 47.2693V49.0889H106.051V44.8531H119.176C119.166 44.0776 118.982 43.3865 118.624 42.78C118.266 42.1734 117.774 41.7011 117.147 41.3631C116.531 41.0151 115.82 40.8411 115.014 40.8411C114.199 40.8411 113.468 41.025 112.822 41.3929C112.176 41.7509 111.664 42.243 111.286 42.8695C110.908 43.4859 110.709 44.1869 110.689 44.9724V49.2828C110.689 50.2175 110.873 51.0378 111.241 51.7437C111.609 52.4398 112.131 52.9817 112.807 53.3695C113.483 53.7572 114.289 53.9511 115.223 53.9511C115.869 53.9511 116.456 53.8616 116.983 53.6827C117.51 53.5037 117.963 53.2402 118.34 52.8922C118.718 52.5442 119.002 52.1166 119.191 51.6095L125.887 51.8034C125.609 53.3048 124.997 54.6124 124.053 55.726C123.118 56.8297 121.89 57.6898 120.369 58.3062C118.847 58.9128 117.088 59.2161 115.089 59.2161Z" fill="white"/>
<path d="M129.687 58.7835V35.8744H136.771V40.0506H137.01C137.428 38.5392 138.109 37.4156 139.053 36.6798C139.998 35.9341 141.097 35.5612 142.349 35.5612C142.687 35.5612 143.036 35.5861 143.393 35.6358C143.751 35.6756 144.085 35.7402 144.393 35.8297V42.1685C144.045 42.0491 143.587 41.9547 143.021 41.8851C142.464 41.8155 141.967 41.7807 141.529 41.7807C140.664 41.7807 139.884 41.9746 139.188 42.3624C138.501 42.7402 137.96 43.2722 137.562 43.9582C137.174 44.6344 136.98 45.4298 136.98 46.3446V58.7835H129.687Z" fill="white"/>
<path d="M5.3125 34.2338V28.2381H31.13V34.2338H21.8679V58.7835H14.5895V34.2338H5.3125Z" stroke="black" stroke-width="2" mask="url(#path-1-outside-1_6_1630)"/>
<path d="M38.0765 59.1713C36.6149 59.1713 35.3173 58.9277 34.1838 58.4405C33.0602 57.9433 32.1703 57.1976 31.514 56.2033C30.8677 55.199 30.5446 53.9412 30.5446 52.4298C30.5446 51.1571 30.7683 50.0832 31.2157 49.2082C31.6632 48.3332 32.2797 47.6223 33.0652 47.0754C33.8507 46.5286 34.7555 46.1159 35.7797 45.8375C36.8038 45.5491 37.8975 45.3553 39.0609 45.2558C40.3635 45.1365 41.4125 45.0122 42.2079 44.883C43.0034 44.7438 43.5801 44.5499 43.938 44.3013C44.3059 44.0428 44.4899 43.6798 44.4899 43.2125V43.1379C44.4899 42.3723 44.2264 41.7807 43.6994 41.3631C43.1724 40.9455 42.4615 40.7366 41.5666 40.7366C40.6021 40.7366 39.8265 40.9455 39.2399 41.3631C38.6532 41.7807 38.2804 42.3574 38.1213 43.0932L31.3947 42.8545C31.5936 41.4625 32.1056 40.2196 32.9309 39.1259C33.7662 38.0222 34.9096 37.1571 36.3613 36.5307C37.823 35.8943 39.5779 35.5761 41.6262 35.5761C43.0879 35.5761 44.4352 35.7501 45.6681 36.0982C46.9011 36.4362 47.975 36.9334 48.8897 37.5896C49.8045 38.2359 50.5105 39.0314 51.0076 39.976C51.5147 40.9206 51.7683 41.9994 51.7683 43.2125V58.7835H44.9075V55.5918H44.7285C44.3208 56.3673 43.7988 57.0236 43.1625 57.5605C42.536 58.0974 41.7953 58.5001 40.9402 58.7686C40.095 59.0371 39.1404 59.1713 38.0765 59.1713ZM40.3287 54.3986C41.1142 54.3986 41.8201 54.2395 42.4466 53.9213C43.0829 53.6031 43.59 53.1656 43.9679 52.6088C44.3457 52.042 44.5346 51.3858 44.5346 50.6401V48.4625C44.3258 48.5719 44.0723 48.6713 43.774 48.7608C43.4856 48.8503 43.1674 48.9348 42.8194 49.0143C42.4714 49.0939 42.1135 49.1635 41.7456 49.2232C41.3777 49.2828 41.0247 49.3375 40.6866 49.3872C40.0005 49.4966 39.4139 49.6656 38.9267 49.8943C38.4494 50.123 38.0815 50.4213 37.823 50.7892C37.5744 51.1472 37.4501 51.5747 37.4501 52.0719C37.4501 52.8276 37.7186 53.4043 38.2555 53.802C38.8024 54.1997 39.4934 54.3986 40.3287 54.3986Z" stroke="black" stroke-width="2" mask="url(#path-1-outside-1_6_1630)"/>
<path d="M76.2285 42.8695L69.5318 43.0484C69.4622 42.5712 69.2733 42.1486 68.965 41.7807C68.6568 41.4028 68.2541 41.1095 67.7569 40.9007C67.2697 40.682 66.7029 40.5726 66.0566 40.5726C65.2115 40.5726 64.4906 40.7416 63.894 41.0797C63.3073 41.4178 63.019 41.8751 63.0289 42.4518C63.019 42.8993 63.198 43.2871 63.5659 43.6152C63.9437 43.9433 64.6149 44.2068 65.5794 44.4057L69.9941 45.2409C72.2811 45.6784 73.9814 46.4043 75.095 47.4185C76.2186 48.4327 76.7853 49.775 76.7953 51.4455C76.7853 53.0165 76.318 54.3837 75.3933 55.547C74.4785 56.7104 73.2257 57.6152 71.6348 58.2615C70.0439 58.8979 68.2243 59.2161 66.176 59.2161C62.9047 59.2161 60.3244 58.5449 58.4352 57.2026C56.5559 55.8503 55.4821 54.0406 55.2136 51.7736L62.4174 51.5946C62.5765 52.4298 62.9892 53.0662 63.6554 53.5037C64.3216 53.9412 65.1717 54.1599 66.2058 54.1599C67.1404 54.1599 67.9011 53.9859 68.4877 53.6379C69.0744 53.2899 69.3727 52.8276 69.3826 52.2509C69.3727 51.7338 69.144 51.3212 68.6966 51.0129C68.2491 50.6947 67.5481 50.4462 66.5936 50.2672L62.5964 49.5065C60.2995 49.0889 58.5893 48.3183 57.4657 47.1947C56.3422 46.0612 55.7853 44.6195 55.7953 42.8695C55.7853 41.3382 56.193 40.0307 57.0183 38.9469C57.8436 37.8531 59.0169 37.0179 60.5382 36.4412C62.0595 35.8645 63.8542 35.5761 65.9224 35.5761C69.0247 35.5761 71.4707 36.2274 73.2605 37.53C75.0502 38.8226 76.0396 40.6024 76.2285 42.8695Z" stroke="black" stroke-width="2" mask="url(#path-1-outside-1_6_1630)"/>
<path d="M86.9634 52.7729L86.9933 44.0776H88.0075L94.4506 35.8744H102.713L93.1381 47.6273H91.2141L86.9634 52.7729ZM80.386 58.7835V28.2381H87.6793V58.7835H80.386ZM94.6147 58.7835L88.619 49.2679L93.4215 44.0925L103.042 58.7835H94.6147Z" stroke="black" stroke-width="2" mask="url(#path-1-outside-1_6_1630)"/>
<path d="M115.089 59.2161C112.693 59.2161 110.624 58.7438 108.884 57.7991C107.154 56.8446 105.822 55.4874 104.887 53.7274C103.963 51.9575 103.5 49.8545 103.5 47.4185C103.5 45.052 103.968 42.9838 104.902 41.2139C105.837 39.4341 107.154 38.052 108.855 37.0676C110.555 36.0733 112.558 35.5761 114.865 35.5761C116.496 35.5761 117.987 35.8297 119.34 36.3368C120.692 36.8439 121.86 37.5946 122.845 38.5889C123.829 39.5832 124.595 40.8112 125.142 42.2729C125.688 43.7246 125.962 45.3901 125.962 47.2693V49.0889H106.051V44.8531H119.176C119.166 44.0776 118.982 43.3865 118.624 42.78C118.266 42.1734 117.774 41.7011 117.147 41.3631C116.531 41.0151 115.82 40.8411 115.014 40.8411C114.199 40.8411 113.468 41.025 112.822 41.3929C112.176 41.7509 111.664 42.243 111.286 42.8695C110.908 43.4859 110.709 44.1869 110.689 44.9724V49.2828C110.689 50.2175 110.873 51.0378 111.241 51.7437C111.609 52.4398 112.131 52.9817 112.807 53.3695C113.483 53.7572 114.289 53.9511 115.223 53.9511C115.869 53.9511 116.456 53.8616 116.983 53.6827C117.51 53.5037 117.963 53.2402 118.34 52.8922C118.718 52.5442 119.002 52.1166 119.191 51.6095L125.887 51.8034C125.609 53.3048 124.997 54.6124 124.053 55.726C123.118 56.8297 121.89 57.6898 120.369 58.3062C118.847 58.9128 117.088 59.2161 115.089 59.2161Z" stroke="black" stroke-width="2" mask="url(#path-1-outside-1_6_1630)"/>
<path d="M129.687 58.7835V35.8744H136.771V40.0506H137.01C137.428 38.5392 138.109 37.4156 139.053 36.6798C139.998 35.9341 141.097 35.5612 142.349 35.5612C142.687 35.5612 143.036 35.5861 143.393 35.6358C143.751 35.6756 144.085 35.7402 144.393 35.8297V42.1685C144.045 42.0491 143.587 41.9547 143.021 41.8851C142.464 41.8155 141.967 41.7807 141.529 41.7807C140.664 41.7807 139.884 41.9746 139.188 42.3624C138.501 42.7402 137.96 43.2722 137.562 43.9582C137.174 44.6344 136.98 45.4298 136.98 46.3446V58.7835H129.687Z" stroke="black" stroke-width="2" mask="url(#path-1-outside-1_6_1630)"/>
</g>
<rect x="4.5" y="1.2831" width="15" height="15" rx="3.5" fill="#18181B" stroke="#27272A"/>
<rect x="24.5" y="1.2831" width="15" height="15" rx="3.5" fill="#4C1D95" stroke="#6D28D9"/>
<rect x="44.5" y="1.2831" width="15" height="15" rx="3.5" fill="#5B21B6" stroke="#7C3AED"/>
<rect x="64.5" y="1.2831" width="15" height="15" rx="3.5" fill="#6D28D9" stroke="#8B5CF6"/>
<rect x="84.5" y="1.2831" width="15" height="15" rx="3.5" fill="#7C3AED" stroke="#A78BFA"/>
<rect x="104.5" y="1.2831" width="15" height="15" rx="3.5" fill="#8B5CF6" stroke="#C4B5FD"/>
<defs>
<filter id="filter0_d_6_1630" x="0.3125" y="27.2381" width="149.08" height="40.978" filterUnits="userSpaceOnUse" color-interpolation-filters="sRGB">
<feFlood flood-opacity="0" result="BackgroundImageFix"/>
<feColorMatrix in="SourceAlpha" type="matrix" values="0 0 0 0 0 0 0 0 0 0 0 0 0 0 0 0 0 0 127 0" result="hardAlpha"/>
<feOffset dy="4"/>
<feGaussianBlur stdDeviation="2"/>
<feComposite in2="hardAlpha" operator="out"/>
<feColorMatrix type="matrix" values="0 0 0 0 0 0 0 0 0 0 0 0 0 0 0 0 0 0 0.25 0"/>
<feBlend mode="normal" in2="BackgroundImageFix" result="effect1_dropShadow_6_1630"/>
<feBlend mode="normal" in="SourceGraphic" in2="effect1_dropShadow_6_1630" result="shape"/>
</filter>
</defs>
</svg>
